<?xml version="1.0" standalone="no"?>
<!DOCTYPE svg PUBLIC "-//W3C//DTD SVG 20010904//EN"
 "http://www.w3.org/TR/2001/REC-SVG-20010904/DTD/svg10.dtd">
<svg version="1.0" xmlns="http://www.w3.org/2000/svg"
 width="597.000000pt" height="597.000000pt" viewBox="0 0 597.000000 597.000000"
 preserveAspectRatio="xMidYMid meet">
<metadata>
Created by potrace 1.11, written by Peter Selinger 2001-2013
</metadata>
<g transform="translate(0.000000,597.000000) scale(0.100000,-0.100000)"
fill="#000000" stroke="none">
<path d="M599 5955 c-37 -7 -80 -20 -95 -28 -16 -8 -41 -17 -55 -20 -40 -10
-168 -98 -226 -155 -98 -97 -169 -223 -202 -359 -19 -76 -19 -151 -20 -2393 0
-1448 4 -2337 10 -2373 45 -271 243 -504 500 -586 35 -12 76 -25 89 -29 39
-11 4686 -13 4745 -2 124 24 225 68 321 140 164 125 261 284 294 481 7 43 10
824 10 2369 -1 2227 -1 2308 -20 2385 -59 249 -233 449 -464 535 -140 52 -2
50 -2501 49 -1881 -1 -2333 -3 -2386 -14z"/>
</g>
</svg>
