<?xml version="1.0" standalone="no"?>
<!DOCTYPE svg PUBLIC "-//W3C//DTD SVG 20010904//EN"
 "http://www.w3.org/TR/2001/REC-SVG-20010904/DTD/svg10.dtd">
<svg version="1.0" xmlns="http://www.w3.org/2000/svg"
 width="274.000000pt" height="274.000000pt" viewBox="0 0 274.000000 274.000000"
 preserveAspectRatio="xMidYMid meet">
<metadata>
Created by potrace 1.11, written by Peter Selinger 2001-2013
</metadata>
<g transform="translate(0.000000,274.000000) scale(0.100000,-0.100000)"
fill="#000000" stroke="none">
<path d="M939 2513 c-8 -9 -26 -39 -40 -67 l-26 -51 -343 -5 -343 -5 -69 -119
c-37 -66 -68 -128 -68 -137 0 -21 182 -132 208 -127 9 2 33 30 53 63 l36 60
65 3 65 3 5 -653 c2 -359 2 -706 0 -770 l-4 -118 -139 0 -138 0 -24 -32 c-45
-62 -128 -218 -125 -235 3 -17 73 -66 161 -113 35 -20 41 -20 62 -6 13 9 27
26 31 38 3 13 15 35 26 50 l19 28 162 0 c89 0 239 3 332 7 l171 6 40 56 c22
31 57 86 78 123 30 54 35 71 27 87 -14 25 -188 122 -206 114 -8 -3 -31 -32
-51 -64 l-35 -59 -65 0 -64 0 0 617 c0 343 4 613 9 607 38 -43 323 -453 444
-639 l32 -50 136 -3 c129 -2 136 -2 156 20 11 13 116 163 233 333 116 171 218
317 226 325 12 12 14 -69 14 -596 l0 -611 -82 -6 c-46 -4 -106 -7 -133 -7 -49
0 -52 -2 -86 -48 -52 -69 -107 -156 -118 -185 -12 -31 -1 -42 111 -107 96 -57
103 -56 149 25 l31 55 332 0 c388 0 337 -18 435 152 74 127 73 128 -28 188
-81 47 -116 61 -134 54 -7 -2 -27 -31 -45 -64 l-33 -60 -65 0 -64 0 0 770 0
770 129 0 c71 0 137 3 145 6 16 6 116 168 142 230 14 32 13 34 -19 57 -17 13
-65 43 -105 67 -84 49 -83 49 -138 -41 l-35 -59 -334 0 -334 0 -19 -27 c-51
-75 -123 -215 -120 -235 2 -16 29 -37 100 -78 54 -30 98 -59 98 -64 0 -5 -16
-31 -36 -59 -20 -27 -45 -66 -56 -86 -11 -20 -41 -65 -67 -100 -25 -35 -80
-112 -121 -170 l-75 -106 -46 -3 c-53 -3 -45 -11 -183 183 -213 301 -327 475
-320 487 3 4 38 8 77 8 40 0 77 4 84 8 15 9 143 223 143 238 0 6 -8 18 -18 27
-21 20 -182 117 -192 117 -4 0 -14 -7 -21 -17z"/>
<path d="M67 1860 c9 -11 19 -17 21 -15 6 6 -18 35 -29 35 -5 0 -1 -9 8 -20z"/>
<path d="M1315 1085 c-70 -36 -97 -120 -59 -185 34 -57 125 -79 179 -44 34 22
65 75 65 110 0 60 -72 134 -130 134 -14 0 -38 -7 -55 -15z"/>
<path d="M2641 789 c-1 -9 7 -23 17 -30 15 -12 16 -12 6 1 -6 8 -14 22 -17 30
-5 13 -6 12 -6 -1z"/>
</g>
</svg>
